<svg width="32" height="32" viewBox="0 0 32 32" fill="none" xmlns="http://www.w3.org/2000/svg">
<rect x="1" y="1" width="30" height="30" rx="15" fill="#41FDFE"/>
<rect x="1" y="1" width="30" height="30" rx="15" stroke="#001F33" stroke-width="2"/>
<path d="M17.1342 9.365C16.8993 9.13124 16.5815 9 16.2502 9C15.9188 9 15.601 9.13124 15.3662 9.365L10.3662 14.365C10.2501 14.4811 10.158 14.6189 10.0952 14.7706C10.0323 14.9223 10 15.0848 10 15.249C10 15.5806 10.1317 15.8985 10.3662 16.133C10.6006 16.3674 10.9186 16.4992 11.2502 16.4992C11.5817 16.4992 11.8997 16.3674 12.1342 16.133L15.0002 13.267V22.249C15.0002 22.5805 15.1319 22.8985 15.3663 23.1329C15.6007 23.3673 15.9186 23.499 16.2502 23.499C16.5817 23.499 16.8996 23.3673 17.134 23.1329C17.3685 22.8985 17.5002 22.5805 17.5002 22.249V13.267L20.3662 16.133C20.4823 16.2491 20.6201 16.3412 20.7717 16.404C20.9234 16.4668 21.086 16.4992 21.2502 16.4992C21.4143 16.4992 21.5769 16.4668 21.7286 16.404C21.8803 16.3412 22.0181 16.2491 22.1342 16.133C22.2503 16.0169 22.3423 15.8791 22.4052 15.7274C22.468 15.5757 22.5003 15.4132 22.5003 15.249C22.5003 15.0848 22.468 14.9223 22.4052 14.7706C22.3423 14.6189 22.2503 14.4811 22.1342 14.365L17.1342 9.365Z" fill="#001F33"/>
</svg>
