<svg width="85" height="85" viewBox="0 0 85 85" fill="none" xmlns="http://www.w3.org/2000/svg">
<path d="M77.9165 21.2499V29.8208C77.9165 35.4166 74.3748 38.9583 68.779 38.9583H56.6665V14.202C56.6665 10.2708 59.8894 7.08325 63.8207 7.08325C67.6811 7.11867 71.2228 8.677 73.7728 11.227C76.3228 13.8124 77.9165 17.3541 77.9165 21.2499Z" fill="#008182"/>
<path opacity="0.4" d="M7.0835 24.7916V74.3749C7.0835 77.3145 10.4127 78.9791 12.7502 77.2083L18.8064 72.6749C20.2231 71.6124 22.2064 71.7541 23.4814 73.0291L29.3606 78.9437C30.7418 80.3249 33.0085 80.3249 34.3898 78.9437L40.3397 72.9937C41.5793 71.7541 43.5627 71.6124 44.9439 72.6749L51.0001 77.2083C53.3376 78.9437 56.6668 77.2791 56.6668 74.3749V14.1666C56.6668 10.2708 59.8543 7.08325 63.7502 7.08325H24.7918H21.2502C10.6252 7.08325 7.0835 13.4228 7.0835 21.2499V24.7916Z" fill="#1CB6B7"/>
<path d="M42.5 34.5312H21.25C19.7979 34.5312 18.5938 33.3271 18.5938 31.875C18.5938 30.4229 19.7979 29.2188 21.25 29.2188H42.5C43.9521 29.2188 45.1562 30.4229 45.1562 31.875C45.1562 33.3271 43.9521 34.5312 42.5 34.5312Z" fill="white"/>
<path d="M39.8438 48.698H23.9062C22.4542 48.698 21.25 47.4938 21.25 46.0417C21.25 44.5897 22.4542 43.3855 23.9062 43.3855H39.8438C41.2958 43.3855 42.5 44.5897 42.5 46.0417C42.5 47.4938 41.2958 48.698 39.8438 48.698Z" fill="white"/>
</svg>
