<svg width="58" height="79" viewBox="0 0 58 79" fill="none" xmlns="http://www.w3.org/2000/svg">
<path d="M45.086 0.0493774C44.8844 0.45253 44.3469 2.06514 43.8765 3.74494C42.8015 7.70927 41.7936 8.78434 37.9636 9.79222C34.8728 10.6657 32.7227 11.808 34.3353 11.808C34.7384 11.808 36.7542 12.4127 38.7699 13.219C42.3983 14.5629 42.5327 14.6972 43.675 18.3928C44.2797 20.4757 45.0188 22.4915 45.2204 22.7603C45.4891 23.029 46.1611 21.4836 46.7658 19.3335C47.3705 17.1833 48.244 15.0332 48.7816 14.63C49.3191 14.1597 51.4692 13.2862 53.6866 12.6143L57.6509 11.3376L53.485 10.1282C51.1333 9.52345 48.9159 8.51557 48.5128 8.04523C48.1096 7.57488 47.2361 5.42474 46.6314 3.27459C46.0267 1.12445 45.2876 -0.286583 45.086 0.0493774Z" fill="#001F33"/>
<path d="M25.8017 5.02161C25.7345 5.49195 24.6595 9.38909 23.3156 13.6894C20.3592 23.1634 19.1497 24.5745 12.2289 26.5902C9.47407 27.4637 5.64413 28.606 3.62837 29.2107L0 30.353L6.31605 32.1672C14.8494 34.5189 18.6794 36.2659 20.0232 38.2816C20.6951 39.2223 22.3077 43.657 23.6516 48.0917L26.1377 56.0875L28.7582 47.6885C30.2364 42.7835 31.9162 38.6176 32.8569 37.6769C34.6711 35.6612 37.6947 34.3845 45.8249 32.1672L52.141 30.353L48.5126 29.2107C46.4969 28.606 42.7341 27.3965 40.0464 26.6574C33.1928 24.5745 32.0506 23.2306 28.6238 12.7487C27.0784 7.97805 25.8017 4.48407 25.8017 5.02161Z" fill="#001F33"/>
<path d="M39.3078 45.404C38.9718 46.3447 38.0984 48.9652 37.4936 51.3169C36.0154 56.4235 34.6716 57.6329 28.1539 59.5815C25.5334 60.3206 23.1145 61.1941 22.8458 61.5301C22.5098 61.7988 24.324 62.538 26.8101 63.1427C35.0075 65.2256 36.3514 66.6367 38.5687 75.506C39.039 77.3874 39.6438 79 39.8453 79C40.1141 79 40.8532 76.9842 41.5251 74.4309C43.7425 66.1663 44.6832 65.2256 52.8806 63.1427C55.3667 62.538 57.1809 61.7988 56.8449 61.5301C56.5762 61.1941 54.09 60.3206 51.3352 59.5143C45.3551 57.7673 43.6081 56.1547 42.1971 51.0481C41.5923 48.8308 40.8532 46.3447 40.5173 45.404L39.9797 43.7242L39.3078 45.404Z" fill="#001F33"/>
</svg>
