<svg width="40" height="40" viewBox="0 0 40 40" fill="none" xmlns="http://www.w3.org/2000/svg">
<path d="M29.1665 19.9999C31.5977 19.9999 33.9292 20.9657 35.6483 22.6848C37.3674 24.4039 38.3332 26.7354 38.3332 29.1666C38.3332 31.5977 37.3674 33.9293 35.6483 35.6484C33.9292 37.3675 31.5977 38.3333 29.1665 38.3333C26.7354 38.3333 24.4038 37.3675 22.6847 35.6484C20.9656 33.9293 19.9998 31.5977 19.9998 29.1666C19.9998 26.7354 20.9656 24.4039 22.6847 22.6848C24.4038 20.9657 26.7354 19.9999 29.1665 19.9999ZM22.9165 3.33325C23.9111 3.33325 24.8649 3.72834 25.5682 4.4316C26.2714 5.13486 26.6665 6.08869 26.6665 7.08325V18.6233C24.2934 19.1861 22.1797 20.5332 20.6674 22.4466C19.1551 24.36 18.3326 26.7277 18.3332 29.1666H14.5832C14.2516 29.1666 13.9337 29.2983 13.6993 29.5327C13.4649 29.7671 13.3332 30.0851 13.3332 30.4166C13.3332 30.7481 13.4649 31.066 13.6993 31.3005C13.9337 31.5349 14.2516 31.6666 14.5832 31.6666H18.6232C19.0699 33.5466 20.0113 35.2729 21.3498 36.6666H10.4165C9.42194 36.6666 8.46812 36.2715 7.76485 35.5682C7.06159 34.865 6.6665 33.9111 6.6665 32.9166V7.08325C6.6665 6.08869 7.06159 5.13486 7.76485 4.4316C8.46812 3.72834 9.42194 3.33325 10.4165 3.33325H22.9165ZM29.1665 23.3333L29.0165 23.3449C28.85 23.3753 28.6967 23.4557 28.577 23.5754C28.4573 23.6951 28.3769 23.8484 28.3465 24.0149L28.3332 24.1666V28.3333H24.1632L24.0132 28.3466C23.8467 28.377 23.6934 28.4574 23.5737 28.5771C23.454 28.6968 23.3736 28.8501 23.3432 29.0166L23.3298 29.1666L23.3432 29.3166C23.3736 29.4831 23.454 29.6364 23.5737 29.7561C23.6934 29.8758 23.8467 29.9562 24.0132 29.9866L24.1632 29.9999H28.3332V34.1716L28.3465 34.3216C28.3769 34.4881 28.4573 34.6414 28.577 34.7611C28.6967 34.8808 28.85 34.9612 29.0165 34.9916L29.1665 35.0049L29.3165 34.9916C29.483 34.9612 29.6363 34.8808 29.756 34.7611C29.8757 34.6414 29.9561 34.4881 29.9865 34.3216L29.9998 34.1716V29.9999L34.1732 30.0016L34.3232 29.9883C34.4897 29.9578 34.643 29.8774 34.7627 29.7577C34.8823 29.6381 34.9628 29.4848 34.9932 29.3183L35.0065 29.1683L34.9932 29.0182C34.9626 28.8515 34.882 28.6981 34.762 28.5783C34.642 28.4586 34.4883 28.3784 34.3215 28.3483L34.1715 28.3349H29.9998V24.1683L29.9865 24.0183C29.9564 23.8514 29.8761 23.6978 29.7564 23.5778C29.6367 23.4578 29.4832 23.3771 29.3165 23.3466L29.1665 23.3333Z" fill="#001F33"/>
</svg>
