<svg width="173" height="45" viewBox="0 0 173 45" fill="none" xmlns="http://www.w3.org/2000/svg">
<path d="M44.0626 26.887V25.0179H51.656C51.656 26.155 51.4847 27.2375 51.142 28.2655C50.7993 29.278 50.2931 30.1814 49.6233 30.9758C48.9536 31.7702 48.128 32.401 47.1467 32.8683C46.181 33.32 45.0751 33.5459 43.829 33.5459C42.6452 33.5459 41.5471 33.3434 40.5346 32.9384C39.5222 32.5178 38.6421 31.9337 37.8945 31.1861C37.1468 30.4228 36.5627 29.5272 36.1421 28.4992C35.7372 27.4712 35.5347 26.3497 35.5347 25.1347C35.5347 23.9198 35.7372 22.7983 36.1421 21.7703C36.5627 20.7422 37.1468 19.8544 37.8945 19.1067C38.6421 18.3435 39.5222 17.7594 40.5346 17.3544C41.5471 16.9339 42.6452 16.7236 43.829 16.7236C44.8415 16.7236 45.7682 16.856 46.6093 17.1208C47.466 17.3856 48.2293 17.775 48.8991 18.289C49.5844 18.803 50.1607 19.4416 50.628 20.2049L49.2262 21.4899C48.7121 20.6176 47.9956 19.9401 47.0766 19.4572C46.1576 18.9588 45.0751 18.7095 43.829 18.7095C42.6764 18.7095 41.6328 18.9821 40.6982 19.5273C39.7636 20.0725 39.016 20.8279 38.4552 21.7936C37.91 22.7438 37.6375 23.8575 37.6375 25.1347C37.6375 26.3964 37.91 27.5101 38.4552 28.4758C39.016 29.4415 39.7636 30.197 40.6982 30.7422C41.6328 31.2873 42.6764 31.5599 43.829 31.5599C44.639 31.5599 45.3633 31.4431 46.0019 31.2094C46.6561 30.9602 47.2168 30.6176 47.6841 30.1814C48.1514 29.7453 48.533 29.2468 48.829 28.6861C49.1405 28.1254 49.3663 27.5257 49.5065 26.887H44.0626ZM58.6277 33.5459C57.6309 33.5459 56.743 33.3122 55.9642 32.8449C55.201 32.3621 54.6013 31.7001 54.1651 30.859C53.7446 30.0179 53.5343 29.0444 53.5343 27.9384C53.5343 26.817 53.7524 25.8357 54.1885 24.9945C54.6402 24.1534 55.2633 23.4992 56.0577 23.0319C56.8676 22.5647 57.8022 22.331 58.8614 22.331C59.9206 22.331 60.824 22.5569 61.5716 23.0086C62.3349 23.4447 62.919 24.0755 63.324 24.9011C63.7289 25.7266 63.9314 26.7079 63.9314 27.845C63.9314 27.954 63.9236 28.0708 63.9081 28.1955C63.9081 28.3045 63.9081 28.3746 63.9081 28.4057H54.7259V26.817H62.4361L61.6885 27.8917C61.7352 27.8138 61.7819 27.697 61.8286 27.5413C61.8754 27.3699 61.8987 27.2297 61.8987 27.1207C61.8987 26.4821 61.7663 25.9291 61.5015 25.4618C61.2523 24.9945 60.9019 24.6285 60.4501 24.3637C59.9984 24.0989 59.4688 23.9665 58.8614 23.9665C58.1449 23.9665 57.5296 24.1223 57.0156 24.4338C56.5172 24.7297 56.1277 25.1659 55.8474 25.7422C55.5826 26.3029 55.4424 26.9961 55.4268 27.8216C55.4268 28.6627 55.5592 29.3792 55.824 29.9711C56.0888 30.563 56.4782 31.0147 56.9922 31.3263C57.5062 31.6378 58.1293 31.7936 58.8614 31.7936C59.5935 31.7936 60.2399 31.6378 60.8006 31.3263C61.3614 30.9992 61.8364 30.5085 62.2258 29.8543L63.7445 30.8123C63.1838 31.7157 62.475 32.401 61.6184 32.8683C60.7772 33.32 59.7804 33.5459 58.6277 33.5459ZM64.8578 22.5647H70.2316V24.317H64.8578V22.5647ZM66.6101 18.8264H68.4792V33.3122H66.6101V18.8264ZM73.8585 15.0881V33.3122H71.9894V15.0881H73.8585ZM82.8538 27.9384C82.8538 29.0911 82.6123 30.088 82.1295 30.9291C81.6466 31.7702 81.0002 32.4166 80.1902 32.8683C79.3959 33.32 78.508 33.5459 77.5267 33.5459C76.6389 33.5459 75.8523 33.32 75.1669 32.8683C74.4971 32.4166 73.9675 31.7702 73.5781 30.9291C73.2043 30.088 73.0174 29.0911 73.0174 27.9384C73.0174 26.7702 73.2043 25.7734 73.5781 24.9478C73.9675 24.1067 74.4971 23.4603 75.1669 23.0086C75.8523 22.5569 76.6389 22.331 77.5267 22.331C78.508 22.331 79.3959 22.5569 80.1902 23.0086C81.0002 23.4603 81.6466 24.1067 82.1295 24.9478C82.6123 25.7734 82.8538 26.7702 82.8538 27.9384ZM80.9613 27.9384C80.9613 27.1129 80.7899 26.412 80.4472 25.8357C80.1201 25.2593 79.6762 24.8232 79.1155 24.5273C78.5703 24.2313 77.9628 24.0833 77.2931 24.0833C76.7479 24.0833 76.2105 24.2313 75.6809 24.5273C75.1513 24.8232 74.7152 25.2593 74.3725 25.8357C74.0299 26.412 73.8585 27.1129 73.8585 27.9384C73.8585 28.764 74.0299 29.4649 74.3725 30.0412C74.7152 30.6176 75.1513 31.0537 75.6809 31.3496C76.2105 31.6456 76.7479 31.7936 77.2931 31.7936C77.9628 31.7936 78.5703 31.6456 79.1155 31.3496C79.6762 31.0537 80.1201 30.6176 80.4472 30.0412C80.7899 29.4649 80.9613 28.764 80.9613 27.9384ZM89.59 33.5459C88.5931 33.5459 87.7053 33.3122 86.9265 32.8449C86.1632 32.3621 85.5635 31.7001 85.1274 30.859C84.7069 30.0179 84.4966 29.0444 84.4966 27.9384C84.4966 26.817 84.7146 25.8357 85.1508 24.9945C85.6025 24.1534 86.2255 23.4992 87.0199 23.0319C87.8299 22.5647 88.7645 22.331 89.8236 22.331C90.8828 22.331 91.7862 22.5569 92.5339 23.0086C93.2971 23.4447 93.8812 24.0755 94.2862 24.9011C94.6912 25.7266 94.8937 26.7079 94.8937 27.845C94.8937 27.954 94.8859 28.0708 94.8703 28.1955C94.8703 28.3045 94.8703 28.3746 94.8703 28.4057H85.6882V26.817H93.3984L92.6507 27.8917C92.6974 27.8138 92.7442 27.697 92.7909 27.5413C92.8376 27.3699 92.861 27.2297 92.861 27.1207C92.861 26.4821 92.7286 25.9291 92.4638 25.4618C92.2146 24.9945 91.8641 24.6285 91.4124 24.3637C90.9607 24.0989 90.4311 23.9665 89.8236 23.9665C89.1071 23.9665 88.4919 24.1223 87.9779 24.4338C87.4794 24.7297 87.09 25.1659 86.8096 25.7422C86.5448 26.3029 86.4047 26.9961 86.3891 27.8216C86.3891 28.6627 86.5215 29.3792 86.7863 29.9711C87.0511 30.563 87.4405 31.0147 87.9545 31.3263C88.4685 31.6378 89.0916 31.7936 89.8236 31.7936C90.5557 31.7936 91.2021 31.6378 91.7629 31.3263C92.3236 30.9992 92.7987 30.5085 93.1881 29.8543L94.7068 30.8123C94.146 31.7157 93.4373 32.401 92.5806 32.8683C91.7395 33.32 90.7426 33.5459 89.59 33.5459ZM95.82 22.5647H101.194V24.317H95.82V22.5647ZM97.5724 18.8264H99.4415V33.3122H97.5724V18.8264ZM101.433 22.5647H106.807V24.317H101.433V22.5647ZM103.185 18.8264H105.054V33.3122H103.185V18.8264ZM112.84 33.5459C111.843 33.5459 110.955 33.3122 110.177 32.8449C109.413 32.3621 108.814 31.7001 108.378 30.859C107.957 30.0179 107.747 29.0444 107.747 27.9384C107.747 26.817 107.965 25.8357 108.401 24.9945C108.853 24.1534 109.476 23.4992 110.27 23.0319C111.08 22.5647 112.015 22.331 113.074 22.331C114.133 22.331 115.036 22.5569 115.784 23.0086C116.547 23.4447 117.131 24.0755 117.536 24.9011C117.941 25.7266 118.144 26.7079 118.144 27.845C118.144 27.954 118.136 28.0708 118.121 28.1955C118.121 28.3045 118.121 28.3746 118.121 28.4057H108.938V26.817H116.649L115.901 27.8917C115.948 27.8138 115.994 27.697 116.041 27.5413C116.088 27.3699 116.111 27.2297 116.111 27.1207C116.111 26.4821 115.979 25.9291 115.714 25.4618C115.465 24.9945 115.114 24.6285 114.663 24.3637C114.211 24.0989 113.681 23.9665 113.074 23.9665C112.357 23.9665 111.742 24.1223 111.228 24.4338C110.73 24.7297 110.34 25.1659 110.06 25.7422C109.795 26.3029 109.655 26.9961 109.639 27.8216C109.639 28.6627 109.772 29.3792 110.036 29.9711C110.301 30.563 110.691 31.0147 111.205 31.3263C111.719 31.6378 112.342 31.7936 113.074 31.7936C113.806 31.7936 114.452 31.6378 115.013 31.3263C115.574 30.9992 116.049 30.5085 116.438 29.8543L117.957 30.8123C117.396 31.7157 116.688 32.401 115.831 32.8683C114.99 33.32 113.993 33.5459 112.84 33.5459ZM122.575 22.5647V33.3122H120.706V22.5647H122.575ZM125.823 24.6207C125.573 24.4338 125.347 24.3014 125.145 24.2235C124.942 24.1301 124.685 24.0833 124.374 24.0833C123.907 24.0833 123.541 24.2002 123.276 24.4338C123.011 24.6674 122.824 24.9868 122.715 25.3917C122.622 25.7967 122.575 26.2562 122.575 26.7702H121.734C121.734 25.9135 121.882 25.1581 122.178 24.5039C122.489 23.8341 122.886 23.3045 123.369 22.9151C123.852 22.5257 124.343 22.331 124.841 22.331C125.231 22.331 125.589 22.3855 125.916 22.4946C126.259 22.588 126.57 22.7827 126.851 23.0787L125.823 24.6207ZM131.845 15.0881V33.3122H128.317V15.0881H131.845ZM140.63 27.9384C140.63 29.1378 140.381 30.1581 139.883 30.9992C139.4 31.8247 138.769 32.4555 137.99 32.8917C137.227 33.3278 136.401 33.5459 135.513 33.5459C134.626 33.5459 133.831 33.32 133.13 32.8683C132.429 32.4166 131.876 31.7702 131.471 30.9291C131.066 30.088 130.864 29.0911 130.864 27.9384C130.864 26.7702 131.066 25.7734 131.471 24.9478C131.876 24.1067 132.429 23.4603 133.13 23.0086C133.831 22.5569 134.626 22.331 135.513 22.331C136.401 22.331 137.227 22.5491 137.99 22.9852C138.769 23.4213 139.4 24.0522 139.883 24.8777C140.381 25.7033 140.63 26.7235 140.63 27.9384ZM136.915 27.9384C136.915 27.3777 136.798 26.8948 136.565 26.4899C136.331 26.0693 136.02 25.75 135.63 25.5319C135.241 25.2983 134.813 25.1815 134.345 25.1815C133.94 25.1815 133.543 25.2905 133.154 25.5086C132.78 25.7266 132.468 26.0459 132.219 26.4665C131.97 26.8715 131.845 27.3621 131.845 27.9384C131.845 28.5148 131.97 29.0132 132.219 29.4338C132.468 29.8387 132.78 30.1503 133.154 30.3683C133.543 30.5864 133.94 30.6954 134.345 30.6954C134.813 30.6954 135.241 30.5864 135.63 30.3683C136.02 30.1347 136.331 29.8154 136.565 29.4104C136.798 28.9898 136.915 28.4992 136.915 27.9384ZM142.55 18.5226C142.55 17.9619 142.753 17.5102 143.158 17.1675C143.563 16.8092 144.046 16.6301 144.607 16.6301C145.183 16.6301 145.666 16.8092 146.055 17.1675C146.46 17.5102 146.663 17.9619 146.663 18.5226C146.663 19.0834 146.46 19.5429 146.055 19.9011C145.666 20.2594 145.183 20.4385 144.607 20.4385C144.046 20.4385 143.563 20.2594 143.158 19.9011C142.753 19.5429 142.55 19.0834 142.55 18.5226ZM142.901 22.5647H146.312V33.3122H142.901V22.5647ZM149.218 15.0881H152.769V33.3122H149.218V15.0881ZM155.515 15.0881H159.067V33.3122H155.515V15.0881ZM162.397 29.4104C162.942 29.8621 163.433 30.2204 163.869 30.4852C164.32 30.7344 164.718 30.9135 165.06 31.0225C165.403 31.116 165.699 31.1627 165.948 31.1627C166.306 31.1627 166.571 31.0848 166.743 30.9291C166.914 30.7733 167 30.5708 167 30.3216C167 30.088 166.929 29.8933 166.789 29.7375C166.649 29.5662 166.408 29.4026 166.065 29.2468C165.738 29.0911 165.286 28.9275 164.71 28.7562C164.196 28.5693 163.705 28.3512 163.238 28.102C162.786 27.8372 162.412 27.4867 162.116 27.0506C161.82 26.6145 161.673 26.0537 161.673 25.3684C161.673 24.7142 161.844 24.1612 162.187 23.7095C162.545 23.2578 163.02 22.9151 163.612 22.6815C164.219 22.4478 164.912 22.331 165.691 22.331C166.314 22.331 166.891 22.4011 167.42 22.5413C167.965 22.6815 168.472 22.8684 168.939 23.102C169.422 23.3357 169.873 23.6083 170.294 23.9198L169.032 26.2095C168.581 25.7889 168.067 25.4463 167.49 25.1815C166.914 24.9011 166.384 24.7609 165.901 24.7609C165.574 24.7609 165.325 24.8232 165.154 24.9478C164.998 25.0724 164.92 25.236 164.92 25.4385C164.92 25.6721 165.014 25.8668 165.201 26.0226C165.403 26.1783 165.683 26.3263 166.042 26.4665C166.415 26.5911 166.867 26.7547 167.397 26.9571C167.958 27.1596 168.472 27.3933 168.939 27.6581C169.422 27.9229 169.803 28.2578 170.084 28.6627C170.38 29.0677 170.528 29.6051 170.528 30.2749C170.528 31.4275 170.169 32.2998 169.453 32.8917C168.752 33.468 167.763 33.7562 166.486 33.7562C165.707 33.7562 164.982 33.6627 164.313 33.4758C163.658 33.3044 163.051 33.0708 162.49 32.7749C161.93 32.4633 161.408 32.1207 160.925 31.7468L162.397 29.4104Z" fill="#013252"/>
<path d="M14.6294 15.2046V0.582458C12.7092 0.582458 10.8078 0.960671 9.03381 1.6955C7.25977 2.43033 5.64783 3.50739 4.29005 4.86518C2.93226 6.22297 1.8552 7.8349 1.12036 9.60894C0.385534 11.383 0.00732422 13.2844 0.00732422 15.2046C0.00732422 17.1248 0.385534 19.0262 1.12036 20.8002C1.8552 22.5743 2.93226 24.1862 4.29005 25.544C5.64783 26.9018 7.25977 27.9788 9.03381 28.7137C10.8078 29.4485 12.7092 29.8267 14.6294 29.8267V44.4488C18.5075 44.4488 22.2267 42.9083 24.9689 40.1661C27.711 37.4239 29.2516 33.7047 29.2516 29.8267C29.2516 25.9487 27.711 22.2295 24.9689 19.4873C22.2267 16.7451 18.5075 15.2046 14.6294 15.2046Z" fill="url(#paint0_linear_584_429)"/>
<path d="M5.80011 44.4659C9.00342 44.4659 11.6002 41.8691 11.6002 38.6658C11.6002 35.4624 9.00342 32.8656 5.80011 32.8656C2.5968 32.8656 0 35.4624 0 38.6658C0 41.8691 2.5968 44.4659 5.80011 44.4659Z" fill="url(#paint1_linear_584_429)"/>
<path d="M23.4617 12.1754C26.665 12.1754 29.2618 9.57862 29.2618 6.3753C29.2618 3.17199 26.665 0.575195 23.4617 0.575195C20.2584 0.575195 17.6616 3.17199 17.6616 6.3753C17.6616 9.57862 20.2584 12.1754 23.4617 12.1754Z" fill="url(#paint2_linear_584_429)"/>
<path d="M144.808 20.4382C146.046 20.4382 147.05 19.4341 147.05 18.1956C147.05 16.957 146.046 15.953 144.808 15.953C143.569 15.953 142.565 16.957 142.565 18.1956C142.565 19.4341 143.569 20.4382 144.808 20.4382Z" fill="url(#paint3_linear_584_429)"/>
<defs>
<linearGradient id="paint0_linear_584_429" x1="14.6295" y1="-9.24918" x2="14.6295" y2="46.8824" gradientUnits="userSpaceOnUse">
<stop stop-color="#001D2F"/>
<stop offset="1" stop-color="#00395E"/>
</linearGradient>
<linearGradient id="paint1_linear_584_429" x1="5.80011" y1="30.2685" x2="5.80011" y2="45.103" gradientUnits="userSpaceOnUse">
<stop stop-color="#AB2C37"/>
<stop offset="1" stop-color="#FF4757"/>
</linearGradient>
<linearGradient id="paint2_linear_584_429" x1="23.4617" y1="-2.02197" x2="23.4617" y2="12.8125" gradientUnits="userSpaceOnUse">
<stop stop-color="#0072BC"/>
<stop offset="1" stop-color="#2F97F7"/>
</linearGradient>
<linearGradient id="paint3_linear_584_429" x1="144.808" y1="14.9488" x2="144.808" y2="20.6845" gradientUnits="userSpaceOnUse">
<stop stop-color="#0072BC"/>
<stop offset="1" stop-color="#2F97F7"/>
</linearGradient>
</defs>
</svg>
