<svg width="282" height="72" viewBox="0 0 282 72" fill="none" xmlns="http://www.w3.org/2000/svg">
<path d="M71.8249 42.549V39.5022H84.2026C84.2026 41.3557 83.9233 43.1203 83.3647 44.7961C82.8061 46.4464 81.9809 47.919 80.8891 49.2139C79.7974 50.5088 78.4517 51.5371 76.8521 52.2988C75.2779 53.0352 73.4752 53.4033 71.444 53.4033C69.5144 53.4033 67.7244 53.0732 66.074 52.4131C64.4237 51.7276 62.9891 50.7754 61.7704 49.5567C60.5517 48.3126 59.5995 46.8527 58.914 45.1769C58.2539 43.5012 57.9238 41.6731 57.9238 39.6927C57.9238 37.7122 58.2539 35.8841 58.914 34.2084C59.5995 32.5326 60.5517 31.0854 61.7704 29.8667C62.9891 28.6226 64.4237 27.6704 66.074 27.0103C67.7244 26.3248 69.5144 25.982 71.444 25.982C73.0944 25.982 74.6051 26.1978 75.9762 26.6294C77.3726 27.0611 78.6167 27.6958 79.7085 28.5337C80.8257 29.3716 81.7651 30.4126 82.5268 31.6567L80.2417 33.7514C79.4038 32.3295 78.2359 31.2251 76.7379 30.438C75.2399 29.6255 73.4752 29.2192 71.444 29.2192C69.5652 29.2192 67.864 29.6636 66.3406 30.5522C64.8172 31.4409 63.5985 32.6723 62.6844 34.2465C61.7958 35.7953 61.3515 37.6107 61.3515 39.6927C61.3515 41.7493 61.7958 43.5646 62.6844 45.1388C63.5985 46.713 64.8172 47.9444 66.3406 48.8331C67.864 49.7217 69.5652 50.1661 71.444 50.1661C72.7643 50.1661 73.945 49.9756 74.9859 49.5948C76.0523 49.1886 76.9664 48.63 77.7281 47.919C78.4898 47.2081 79.1118 46.3956 79.5943 45.4816C80.1021 44.5676 80.4702 43.59 80.6987 42.549H71.8249ZM95.5668 53.4033C93.9418 53.4033 92.4946 53.0225 91.2251 52.2608C89.981 51.4737 89.0035 50.3946 88.2925 49.0235C87.607 47.6525 87.2642 46.0656 87.2642 44.2629C87.2642 42.4348 87.6197 40.8352 88.3306 39.4641C89.0669 38.0931 90.0825 37.0267 91.3774 36.265C92.6977 35.5033 94.2211 35.1224 95.9477 35.1224C97.6742 35.1224 99.1468 35.4906 100.366 36.2269C101.61 36.9378 102.562 37.9661 103.222 39.3118C103.882 40.6575 104.212 42.2571 104.212 44.1105C104.212 44.2883 104.199 44.4787 104.174 44.6818C104.174 44.8595 104.174 44.9738 104.174 45.0246H89.2066V42.4348H101.775L100.556 44.1867C100.632 44.0598 100.708 43.8693 100.784 43.6154C100.861 43.3361 100.899 43.1076 100.899 42.9299C100.899 41.8889 100.683 40.9875 100.251 40.2258C99.845 39.4641 99.2738 38.8675 98.5375 38.4358C97.8011 38.0042 96.9379 37.7884 95.9477 37.7884C94.7797 37.7884 93.7768 38.0423 92.9389 38.5501C92.1265 39.0325 91.4917 39.7434 91.0347 40.6829C90.603 41.5969 90.3745 42.7268 90.3491 44.0724C90.3491 45.4435 90.565 46.6115 90.9966 47.5763C91.4282 48.5411 92.063 49.2774 92.9009 49.7852C93.7387 50.293 94.7543 50.5469 95.9477 50.5469C97.141 50.5469 98.1947 50.293 99.1087 49.7852C100.023 49.252 100.797 48.4522 101.432 47.3859L103.907 48.9473C102.993 50.42 101.838 51.5371 100.442 52.2988C99.0706 53.0352 97.4457 53.4033 95.5668 53.4033ZM105.722 35.5033H114.482V38.3597H105.722V35.5033ZM108.579 29.4097H111.625V53.0225H108.579V29.4097ZM120.394 23.316V53.0225H117.347V23.316H120.394ZM135.057 44.2629C135.057 46.1417 134.663 47.7667 133.876 49.1378C133.089 50.5088 132.035 51.5625 130.715 52.2988C129.42 53.0352 127.973 53.4033 126.373 53.4033C124.926 53.4033 123.644 53.0352 122.527 52.2988C121.435 51.5625 120.572 50.5088 119.937 49.1378C119.327 47.7667 119.023 46.1417 119.023 44.2629C119.023 42.3586 119.327 40.7336 119.937 39.388C120.572 38.0169 121.435 36.9632 122.527 36.2269C123.644 35.4906 124.926 35.1224 126.373 35.1224C127.973 35.1224 129.42 35.4906 130.715 36.2269C132.035 36.9632 133.089 38.0169 133.876 39.388C134.663 40.7336 135.057 42.3586 135.057 44.2629ZM131.972 44.2629C131.972 42.9172 131.692 41.7746 131.134 40.8352C130.601 39.8958 129.877 39.1849 128.963 38.7024C128.074 38.22 127.084 37.9788 125.992 37.9788C125.104 37.9788 124.228 38.22 123.365 38.7024C122.501 39.1849 121.79 39.8958 121.232 40.8352C120.673 41.7746 120.394 42.9172 120.394 44.2629C120.394 45.6085 120.673 46.7511 121.232 47.6905C121.79 48.63 122.501 49.3409 123.365 49.8233C124.228 50.3057 125.104 50.5469 125.992 50.5469C127.084 50.5469 128.074 50.3057 128.963 49.8233C129.877 49.3409 130.601 48.63 131.134 47.6905C131.692 46.7511 131.972 45.6085 131.972 44.2629ZM146.037 53.4033C144.412 53.4033 142.965 53.0225 141.695 52.2608C140.451 51.4737 139.474 50.3946 138.763 49.0235C138.077 47.6525 137.735 46.0656 137.735 44.2629C137.735 42.4348 138.09 40.8352 138.801 39.4641C139.537 38.0931 140.553 37.0267 141.848 36.265C143.168 35.5033 144.691 35.1224 146.418 35.1224C148.144 35.1224 149.617 35.4906 150.836 36.2269C152.08 36.9378 153.032 37.9661 153.692 39.3118C154.352 40.6575 154.682 42.2571 154.682 44.1105C154.682 44.2883 154.67 44.4787 154.644 44.6818C154.644 44.8595 154.644 44.9738 154.644 45.0246H139.677V42.4348H152.245L151.026 44.1867C151.102 44.0598 151.179 43.8693 151.255 43.6154C151.331 43.3361 151.369 43.1076 151.369 42.9299C151.369 41.8889 151.153 40.9875 150.722 40.2258C150.315 39.4641 149.744 38.8675 149.008 38.4358C148.271 38.0042 147.408 37.7884 146.418 37.7884C145.25 37.7884 144.247 38.0423 143.409 38.5501C142.597 39.0325 141.962 39.7434 141.505 40.6829C141.073 41.5969 140.845 42.7268 140.819 44.0724C140.819 45.4435 141.035 46.6115 141.467 47.5763C141.899 48.5411 142.533 49.2774 143.371 49.7852C144.209 50.293 145.225 50.5469 146.418 50.5469C147.611 50.5469 148.665 50.293 149.579 49.7852C150.493 49.252 151.267 48.4522 151.902 47.3859L154.378 48.9473C153.464 50.42 152.308 51.5371 150.912 52.2988C149.541 53.0352 147.916 53.4033 146.037 53.4033ZM156.192 35.5033H164.952V38.3597H156.192V35.5033ZM159.049 29.4097H162.096V53.0225H159.049V29.4097ZM165.342 35.5033H174.101V38.3597H165.342V35.5033ZM168.198 29.4097H171.245V53.0225H168.198V29.4097ZM183.936 53.4033C182.311 53.4033 180.864 53.0225 179.595 52.2608C178.35 51.4737 177.373 50.3946 176.662 49.0235C175.976 47.6525 175.634 46.0656 175.634 44.2629C175.634 42.4348 175.989 40.8352 176.7 39.4641C177.436 38.0931 178.452 37.0267 179.747 36.265C181.067 35.5033 182.591 35.1224 184.317 35.1224C186.044 35.1224 187.516 35.4906 188.735 36.2269C189.979 36.9378 190.931 37.9661 191.591 39.3118C192.252 40.6575 192.582 42.2571 192.582 44.1105C192.582 44.2883 192.569 44.4787 192.544 44.6818C192.544 44.8595 192.544 44.9738 192.544 45.0246H177.576V42.4348H190.144L188.925 44.1867C189.002 44.0598 189.078 43.8693 189.154 43.6154C189.23 43.3361 189.268 43.1076 189.268 42.9299C189.268 41.8889 189.052 40.9875 188.621 40.2258C188.215 39.4641 187.643 38.8675 186.907 38.4358C186.171 38.0042 185.307 37.7884 184.317 37.7884C183.149 37.7884 182.146 38.0423 181.308 38.5501C180.496 39.0325 179.861 39.7434 179.404 40.6829C178.973 41.5969 178.744 42.7268 178.719 44.0724C178.719 45.4435 178.934 46.6115 179.366 47.5763C179.798 48.5411 180.432 49.2774 181.27 49.7852C182.108 50.293 183.124 50.5469 184.317 50.5469C185.51 50.5469 186.564 50.293 187.478 49.7852C188.392 49.252 189.167 48.4522 189.801 47.3859L192.277 48.9473C191.363 50.42 190.208 51.5371 188.811 52.2988C187.44 53.0352 185.815 53.4033 183.936 53.4033ZM199.804 35.5033V53.0225H196.758V35.5033H199.804ZM205.098 38.8548C204.692 38.5501 204.324 38.3343 203.994 38.2073C203.664 38.055 203.245 37.9788 202.737 37.9788C201.975 37.9788 201.379 38.1692 200.947 38.5501C200.515 38.931 200.211 39.4514 200.033 40.1116C199.881 40.7717 199.804 41.5207 199.804 42.3586H198.433C198.433 40.9622 198.675 39.7307 199.157 38.6644C199.665 37.5726 200.312 36.7093 201.099 36.0746C201.886 35.4398 202.686 35.1224 203.499 35.1224C204.133 35.1224 204.717 35.2113 205.251 35.389C205.809 35.5414 206.317 35.8587 206.774 36.3412L205.098 38.8548ZM214.916 23.316V53.0225H209.165V23.316H214.916ZM229.236 44.2629C229.236 46.2179 228.829 47.881 228.017 49.252C227.23 50.5977 226.201 51.626 224.932 52.3369C223.688 53.0479 222.342 53.4033 220.895 53.4033C219.448 53.4033 218.153 53.0352 217.01 52.2988C215.868 51.5625 214.966 50.5088 214.306 49.1378C213.646 47.7667 213.316 46.1417 213.316 44.2629C213.316 42.3586 213.646 40.7336 214.306 39.388C214.966 38.0169 215.868 36.9632 217.01 36.2269C218.153 35.4906 219.448 35.1224 220.895 35.1224C222.342 35.1224 223.688 35.4779 224.932 36.1888C226.201 36.8997 227.23 37.928 228.017 39.2737C228.829 40.6194 229.236 42.2824 229.236 44.2629ZM223.18 44.2629C223.18 43.3488 222.99 42.5617 222.609 41.9016C222.228 41.2161 221.72 40.6956 221.085 40.3401C220.451 39.9593 219.752 39.7688 218.991 39.7688C218.331 39.7688 217.683 39.9466 217.048 40.302C216.439 40.6575 215.931 41.178 215.525 41.8635C215.119 42.5237 214.916 43.3234 214.916 44.2629C214.916 45.2023 215.119 46.0148 215.525 46.7003C215.931 47.3605 216.439 47.8683 217.048 48.2237C217.683 48.5792 218.331 48.7569 218.991 48.7569C219.752 48.7569 220.451 48.5792 221.085 48.2237C221.72 47.8429 222.228 47.3224 222.609 46.6622C222.99 45.9767 223.18 45.1769 223.18 44.2629ZM232.366 28.9146C232.366 28.0005 232.696 27.2642 233.356 26.7056C234.016 26.1216 234.803 25.8297 235.717 25.8297C236.657 25.8297 237.444 26.1216 238.079 26.7056C238.739 27.2642 239.069 28.0005 239.069 28.9146C239.069 29.8286 238.739 30.5776 238.079 31.1616C237.444 31.7456 236.657 32.0375 235.717 32.0375C234.803 32.0375 234.016 31.7456 233.356 31.1616C232.696 30.5776 232.366 29.8286 232.366 28.9146ZM232.937 35.5033H238.497V53.0225H232.937V35.5033ZM243.234 23.316H249.023V53.0225H243.234V23.316ZM253.499 23.316H259.288V53.0225H253.499V23.316ZM264.716 46.6622C265.605 47.3986 266.405 47.9825 267.116 48.4142C267.852 48.8204 268.5 49.1124 269.058 49.2901C269.617 49.4425 270.099 49.5186 270.505 49.5186C271.089 49.5186 271.521 49.3917 271.8 49.1378C272.08 48.8839 272.219 48.5538 272.219 48.1476C272.219 47.7667 272.105 47.4493 271.876 47.1954C271.648 46.9161 271.254 46.6495 270.696 46.3956C270.163 46.1417 269.426 45.8751 268.487 45.5959C267.649 45.2912 266.849 44.9357 266.087 44.5295C265.351 44.0978 264.742 43.5266 264.259 42.8156C263.777 42.1047 263.536 41.1907 263.536 40.0735C263.536 39.0071 263.815 38.1058 264.374 37.3695C264.958 36.6331 265.732 36.0746 266.697 35.6937C267.687 35.3129 268.817 35.1224 270.086 35.1224C271.102 35.1224 272.041 35.2367 272.905 35.4652C273.793 35.6937 274.619 35.9984 275.38 36.3792C276.167 36.7601 276.904 37.2044 277.589 37.7122L275.533 41.4446C274.796 40.759 273.958 40.2005 273.019 39.7688C272.08 39.3118 271.216 39.0833 270.429 39.0833C269.896 39.0833 269.49 39.1849 269.21 39.388C268.957 39.5911 268.83 39.8577 268.83 40.1878C268.83 40.5686 268.982 40.886 269.287 41.1399C269.617 41.3938 270.074 41.635 270.658 41.8635C271.267 42.0666 272.003 42.3332 272.867 42.6633C273.781 42.9934 274.619 43.3742 275.38 43.8059C276.167 44.2375 276.789 44.7834 277.246 45.4435C277.729 46.1037 277.97 46.9796 277.97 48.0714C277.97 49.9503 277.386 51.3721 276.218 52.3369C275.076 53.2764 273.463 53.7461 271.381 53.7461C270.112 53.7461 268.931 53.5937 267.839 53.2891C266.773 53.0098 265.783 52.6289 264.869 52.1465C263.955 51.6387 263.104 51.0801 262.317 50.4708L264.716 46.6622Z" fill="#001F33"/>
<path d="M23.8461 23.8466V0.0117188C20.7161 0.0117187 17.6167 0.628227 14.7249 1.82604C11.8331 3.02386 9.20559 4.77953 6.99231 6.9928C4.77904 9.20608 3.02337 11.8336 1.82555 14.7254C0.627734 17.6172 0.0112305 20.7166 0.0112305 23.8466C0.0112305 26.9767 0.627734 30.0761 1.82555 32.9679C3.02337 35.8596 4.77904 38.4872 6.99231 40.7005C9.20559 42.9137 11.8331 44.6694 14.7249 45.8672C17.6167 47.065 20.7161 47.6815 23.8461 47.6815V71.5165C30.1676 71.5165 36.2301 69.0053 40.7 64.5354C45.1699 60.0655 47.681 54.003 47.681 47.6815C47.681 41.3601 45.1699 35.2976 40.7 30.8277C36.2301 26.3578 30.1676 23.8466 23.8461 23.8466Z" fill="#001F33"/>
<path d="M9.45452 71.5438C14.6761 71.5438 18.909 67.3109 18.909 62.0893C18.909 56.8677 14.6761 52.6348 9.45452 52.6348C4.23293 52.6348 0 56.8677 0 62.0893C0 67.3109 4.23293 71.5438 9.45452 71.5438Z" fill="url(#paint0_linear_584_703)"/>
<path d="M38.2436 18.909C43.4651 18.909 47.6981 14.6761 47.6981 9.45451C47.6981 4.23293 43.4651 0 38.2436 0C33.022 0 28.7891 4.23293 28.7891 9.45451C28.7891 14.6761 33.022 18.909 38.2436 18.909Z" fill="url(#paint1_linear_584_703)"/>
<path d="M236.044 32.3775C238.063 32.3775 239.7 30.7409 239.7 28.722C239.7 26.7031 238.063 25.0664 236.044 25.0664C234.025 25.0664 232.389 26.7031 232.389 28.722C232.389 30.7409 234.025 32.3775 236.044 32.3775Z" fill="url(#paint2_linear_584_703)"/>
<defs>
<linearGradient id="paint0_linear_584_703" x1="9.45452" y1="48.4012" x2="9.45452" y2="72.5823" gradientUnits="userSpaceOnUse">
<stop stop-color="#AB2C37"/>
<stop offset="1" stop-color="#FF4757"/>
</linearGradient>
<linearGradient id="paint1_linear_584_703" x1="38.2436" y1="-4.23353" x2="38.2436" y2="19.9475" gradientUnits="userSpaceOnUse">
<stop stop-color="#0072BC"/>
<stop offset="1" stop-color="#2F97F7"/>
</linearGradient>
<linearGradient id="paint2_linear_584_703" x1="236.044" y1="23.4295" x2="236.044" y2="32.7791" gradientUnits="userSpaceOnUse">
<stop stop-color="#0072BC"/>
<stop offset="1" stop-color="#2F97F7"/>
</linearGradient>
</defs>
</svg>
