<svg width="159" height="26" viewBox="0 0 159 26" fill="none" xmlns="http://www.w3.org/2000/svg">
<path d="M13.5853 1.44323L16.2724 7.5721C16.3735 7.80272 16.5347 8.00198 16.739 8.14911C16.9434 8.29624 17.1835 8.38584 17.4343 8.40858L23.9804 8.99551C24.721 9.10332 25.0165 10.0117 24.4795 10.5347L19.5484 14.6772C19.1492 15.0126 18.9675 15.5396 19.0773 16.0487L20.5107 22.7585C20.6365 23.4952 19.8639 24.0581 19.2011 23.7088L13.4874 20.3629C13.272 20.2363 13.0266 20.1696 12.7767 20.1696C12.5269 20.1696 12.2815 20.2363 12.066 20.3629L6.35241 23.7068C5.69162 24.0542 4.91702 23.4932 5.04279 22.7565L6.47619 16.0467C6.58399 15.5376 6.40432 15.0106 6.00505 14.6752L1.07201 10.5367C0.536981 10.0157 0.832444 9.10531 1.5711 8.99751L8.11721 8.41057C8.368 8.38784 8.60809 8.29823 8.81246 8.15111C9.01682 8.00398 9.17797 7.80471 9.2791 7.57409L11.9662 1.44523C12.2996 0.774449 13.2539 0.774449 13.5853 1.44323Z" fill="#FDD835"/>
<path d="M13.3899 7.93977L12.9347 3.42397C12.9167 3.17243 12.8648 2.74121 13.2681 2.74121C13.5875 2.74121 13.7612 3.406 13.7612 3.406L15.1267 7.03142C15.6418 8.41091 15.4302 8.88405 14.9331 9.16354C14.3621 9.48296 13.5197 9.23342 13.3899 7.93977Z" fill="#FFFF8D"/>
<path d="M19.0215 14.2763L22.9384 11.2198C23.132 11.0581 23.4814 10.8006 23.2019 10.5071C22.9803 10.2756 22.3814 10.609 22.3814 10.609L18.9536 11.9485C17.9315 12.3019 17.2527 12.8249 17.1928 13.4837C17.1149 14.3621 17.9035 15.0389 19.0215 14.2763Z" fill="#F4B400"/>
<g clip-path="url(#clip0_584_514)">
<path d="M46.9471 1.44323L49.6342 7.5721C49.7353 7.80272 49.8965 8.00198 50.1008 8.14911C50.3052 8.29624 50.5453 8.38584 50.7961 8.40858L57.3422 8.99551C58.0829 9.10332 58.3783 10.0117 57.8413 10.5347L52.9103 14.6772C52.511 15.0126 52.3293 15.5396 52.4391 16.0487L53.8725 22.7585C53.9983 23.4952 53.2257 24.0581 52.5629 23.7088L46.8493 20.3629C46.6338 20.2363 46.3884 20.1696 46.1386 20.1696C45.8887 20.1696 45.6433 20.2363 45.4278 20.3629L39.7142 23.7068C39.0534 24.0542 38.2788 23.4932 38.4046 22.7565L39.838 16.0467C39.9458 15.5376 39.7661 15.0106 39.3669 14.6752L34.4338 10.5367C33.8988 10.0157 34.1943 9.10531 34.9329 8.99751L41.479 8.41057C41.7298 8.38784 41.9699 8.29823 42.1743 8.15111C42.3786 8.00398 42.5398 7.80471 42.6409 7.57409L45.328 1.44523C45.6614 0.774449 46.6157 0.774449 46.9471 1.44323Z" fill="#FDD835"/>
<path d="M46.7517 7.93977L46.2965 3.42397C46.2786 3.17243 46.2267 2.74121 46.6299 2.74121C46.9493 2.74121 47.123 3.406 47.123 3.406L48.4885 7.03142C49.0036 8.41091 48.792 8.88405 48.2949 9.16354C47.7239 9.48296 46.8815 9.23342 46.7517 7.93977Z" fill="#FFFF8D"/>
<path d="M52.3833 14.2763L56.3002 11.2198C56.4938 11.0581 56.8432 10.8006 56.5637 10.5071C56.3421 10.2756 55.7432 10.609 55.7432 10.609L52.3154 11.9485C51.2933 12.3019 50.6145 12.8249 50.5546 13.4837C50.4768 14.3621 51.2653 15.0389 52.3833 14.2763Z" fill="#F4B400"/>
</g>
<path d="M80.3084 1.44323L82.9955 7.5721C83.0967 7.80272 83.2578 8.00198 83.4622 8.14911C83.6665 8.29624 83.9066 8.38584 84.1574 8.40858L90.7035 8.99551C91.4442 9.10332 91.7396 10.0117 91.2026 10.5347L86.2716 14.6772C85.8723 15.0126 85.6906 15.5396 85.8004 16.0487L87.2338 22.7585C87.3596 23.4952 86.587 24.0581 85.9242 23.7088L80.2106 20.3629C79.9951 20.2363 79.7498 20.1696 79.4999 20.1696C79.25 20.1696 79.0047 20.2363 78.7892 20.3629L73.0756 23.7068C72.4148 24.0542 71.6402 23.4932 71.7659 22.7565L73.1993 16.0467C73.3071 15.5376 73.1275 15.0106 72.7282 14.6752L67.7952 10.5367C67.2601 10.0157 67.5556 9.10531 68.2942 8.99751L74.8404 8.41057C75.0911 8.38784 75.3312 8.29823 75.5356 8.15111C75.74 8.00398 75.9011 7.80471 76.0022 7.57409L78.6894 1.44523C79.0228 0.774449 79.977 0.774449 80.3084 1.44323Z" fill="#FDD835"/>
<path d="M80.113 7.93977L79.6579 3.42397C79.6399 3.17243 79.588 2.74121 79.9913 2.74121C80.3107 2.74121 80.4844 3.406 80.4844 3.406L81.8499 7.03142C82.3649 8.41091 82.1533 8.88405 81.6562 9.16354C81.0853 9.48296 80.2428 9.23342 80.113 7.93977Z" fill="#FFFF8D"/>
<path d="M85.7446 14.2763L89.6615 11.2198C89.8552 11.0581 90.2045 10.8006 89.925 10.5071C89.7034 10.2756 89.1045 10.609 89.1045 10.609L85.6767 11.9485C84.6546 12.3019 83.9758 12.8249 83.9159 13.4837C83.8381 14.3621 84.6266 15.0389 85.7446 14.2763Z" fill="#F4B400"/>
<g clip-path="url(#clip1_584_514)">
<path d="M113.67 1.44323L116.357 7.5721C116.458 7.80272 116.62 8.00198 116.824 8.14911C117.028 8.29624 117.268 8.38584 117.519 8.40858L124.065 8.99551C124.806 9.10332 125.101 10.0117 124.564 10.5347L119.633 14.6772C119.234 15.0126 119.052 15.5396 119.162 16.0487L120.596 22.7585C120.721 23.4952 119.949 24.0581 119.286 23.7088L113.572 20.3629C113.357 20.2363 113.112 20.1696 112.862 20.1696C112.612 20.1696 112.366 20.2363 112.151 20.3629L106.437 23.7068C105.777 24.0542 105.002 23.4932 105.128 22.7565L106.561 16.0467C106.669 15.5376 106.489 15.0106 106.09 14.6752L101.157 10.5367C100.622 10.0157 100.917 9.10531 101.656 8.99751L108.202 8.41057C108.453 8.38784 108.693 8.29823 108.897 8.15111C109.102 8.00398 109.263 7.80471 109.364 7.57409L112.051 1.44523C112.385 0.774449 113.339 0.774449 113.67 1.44323Z" fill="#FDD835"/>
<path d="M113.475 7.93977L113.02 3.42397C113.002 3.17243 112.95 2.74121 113.353 2.74121C113.672 2.74121 113.846 3.406 113.846 3.406L115.212 7.03142C115.727 8.41091 115.515 8.88405 115.018 9.16354C114.447 9.48296 113.605 9.23342 113.475 7.93977Z" fill="#FFFF8D"/>
<path d="M119.106 14.2763L123.023 11.2198C123.217 11.0581 123.566 10.8006 123.287 10.5071C123.065 10.2756 122.466 10.609 122.466 10.609L119.039 11.9485C118.016 12.3019 117.338 12.8249 117.278 13.4837C117.2 14.3621 117.988 15.0389 119.106 14.2763Z" fill="#F4B400"/>
</g>
<g clip-path="url(#clip2_584_514)">
<path d="M147.032 1.44323L149.719 7.5721C149.82 7.80272 149.981 8.00198 150.185 8.14911C150.39 8.29624 150.63 8.38584 150.881 8.40858L157.427 8.99551C158.167 9.10332 158.463 10.0117 157.926 10.5347L152.995 14.6772C152.595 15.0126 152.414 15.5396 152.524 16.0487L153.957 22.7585C154.083 23.4952 153.31 24.0581 152.647 23.7088L146.934 20.3629C146.718 20.2363 146.473 20.1696 146.223 20.1696C145.973 20.1696 145.728 20.2363 145.512 20.3629L139.799 23.7068C139.138 24.0542 138.363 23.4932 138.489 22.7565L139.922 16.0467C140.03 15.5376 139.851 15.0106 139.451 14.6752L134.518 10.5367C133.983 10.0157 134.279 9.10531 135.017 8.99751L141.563 8.41057C141.814 8.38784 142.054 8.29823 142.259 8.15111C142.463 8.00398 142.624 7.80471 142.725 7.57409L145.413 1.44523C145.746 0.774449 146.7 0.774449 147.032 1.44323Z" fill="#FDD835"/>
<path d="M146.836 7.93977L146.381 3.42397C146.363 3.17243 146.311 2.74121 146.714 2.74121C147.033 2.74121 147.207 3.406 147.207 3.406L148.573 7.03142C149.088 8.41091 148.876 8.88405 148.379 9.16354C147.808 9.48296 146.965 9.23342 146.836 7.93977Z" fill="#FFFF8D"/>
<path d="M152.468 14.2763L156.385 11.2198C156.578 11.0581 156.928 10.8006 156.648 10.5071C156.427 10.2756 155.828 10.609 155.828 10.609L152.4 11.9485C151.378 12.3019 150.699 12.8249 150.639 13.4837C150.561 14.3621 151.35 15.0389 152.468 14.2763Z" fill="#F4B400"/>
</g>
<defs>
<clipPath id="clip0_584_514">
<rect width="25.5536" height="25.5536" fill="white" transform="translate(33.3618)"/>
</clipPath>
<clipPath id="clip1_584_514">
<rect width="25.5536" height="25.5536" fill="white" transform="translate(100.085)"/>
</clipPath>
<clipPath id="clip2_584_514">
<rect width="25.5536" height="25.5536" fill="white" transform="translate(133.446)"/>
</clipPath>
</defs>
</svg>
